<?xml version="1.0" encoding="UTF-8" standalone="no"?>
<!DOCTYPE svg PUBLIC "-//W3C//DTD SVG 1.1//EN" "http://www.w3.org/Graphics/SVG/1.1/DTD/svg11.dtd">
<svg width="100%" height="100%" viewBox="0 0 815 249" version="1.1" xmlns="http://www.w3.org/2000/svg" xmlns:xlink="http://www.w3.org/1999/xlink" xml:space="preserve" xmlns:serif="http://www.serif.com/" style="fill-rule:evenodd;clip-rule:evenodd;stroke-linecap:round;stroke-linejoin:round;stroke-miterlimit:1.5;">
    <path d="M15.244,145.861L140.29,144.92C145.075,144.969 148.931,143.136 151.515,138.727L165.465,104.653C167.522,98.949 176.268,99.099 177.91,104.778L188.158,186.061L214.049,17.645C216.61,11.651 224.297,11.944 226.307,17.248L243.966,142.689L252.045,127C254.456,123.125 256.653,122.172 259.846,122.163L303.794,122.325C311.205,123.705 310.923,134.288 303.883,135.638L268.226,135.41C262.998,135.11 262.462,136.357 260.4,139.904L244.965,163.891C242.059,168.99 234.183,168.295 233.1,162.393L219.512,67.015L193.047,235.306C191.05,241.62 182.048,240.952 180.993,235.176L168.002,133.449L160.627,152.895C159.537,156.296 157.351,158.248 153.895,158.521L14.086,159.034C8.113,157.679 8.061,146.607 15.244,145.861Z" style="fill:white;stroke:white;stroke-width:0.35px;"/>
    <path d="M273.145,145.21C263.342,148.065 264.233,160.389 272.858,162.096L293.77,161.948L293.759,239.78L312.731,239.78L313.047,162.171L333.232,162.054C342.469,160.333 343.233,146.818 333.338,145.349L273.145,145.21Z" style="fill:white;stroke:white;stroke-width:0.35px;"/>
    <path d="M329.324,169.166L348.345,169.288L348.378,179.636C351.827,172.024 357.372,168.005 367.487,168.257C376.732,170.198 376.93,184.338 367.542,186.241C354.917,186.464 349.69,192.863 348.447,203.774L348.096,239.78L329.606,239.78L329.324,169.166Z" style="fill:white;stroke:white;stroke-width:0.35px;"/>
    <path d="M374.502,189.26C374.385,180.522 381.678,173.518 391.276,169.99C407.378,164.07 429.969,167.931 434.953,189.795L434.996,239.78L417.776,239.78L417.531,230.089C380.237,271.142 337.332,186.76 416.487,196.878L416.479,190.536C412.29,180.961 397.122,180.47 391.834,189.205L374.502,189.26ZM416.646,207.567C395.95,204.842 388.603,212.933 394.661,222.434C401.973,227.696 416.312,223.567 416.615,211.961C416.653,210.497 416.654,209.18 416.646,207.567Z" style="fill:white;stroke:white;stroke-width:0.35px;"/>
    <path d="M490.378,195.251L508.892,193.504C503.042,160.976 444.043,154.775 440.84,204.013C438.336,242.515 496.275,258.5 509.054,218.391L492.432,216.185C481.65,231.178 461.781,225.483 460.732,205.6C459.471,181.667 483.867,177.515 490.378,195.251Z" style="fill:white;stroke:white;stroke-width:0.35px;"/>
    <path d="M513.039,140.292L532.231,140.229L532.414,196.927L556.308,168.246L578.465,168.246L552.77,197.006L582.555,239.78L560.45,239.78L538.416,207.552L531.484,213.548L531.76,239.78L512.901,239.78L513.039,140.292Z" style="fill:white;stroke:white;stroke-width:0.35px;"/>
    <path d="M585.191,145.21L632.591,145.21C662.252,149.058 668.668,192.569 637.083,201.041L664.664,239.78L641.981,239.78L619.931,204.914L604.199,204.914L604.373,239.78L585.535,239.78L585.191,145.21ZM604.282,161.429L604.405,190.004L623.735,190.004C642.406,186.835 641.889,165.264 627.259,161.443L604.282,161.429Z" style="fill:white;stroke:white;stroke-width:0.35px;"/>
    <path d="M731.721,210.12L681.676,209.875C683.385,226.663 701.391,231.514 712.499,218.786L730.063,220.635C716.621,253.971 660.819,246.359 662.789,204.914C663.473,154.549 736.663,155.241 731.721,210.12ZM682.172,198.8L713.234,198.577C710.393,176.471 682.029,180.468 682.172,198.8Z" style="fill:white;stroke:white;stroke-width:0.35px;"/>
    <path d="M788.622,177.478L787.819,140.229L806.765,140.229L807.442,239.78L789.742,239.78L789.613,228.901C771.566,254.539 737.064,235.283 737.299,204.914C737.57,169.805 774.026,157.434 788.622,177.478ZM771.37,183.661C762.426,183.661 755.164,192.591 755.164,203.59C755.164,214.59 762.426,223.519 771.37,223.519C780.314,223.519 787.576,214.59 787.576,203.59C787.576,192.591 780.314,183.661 771.37,183.661Z" style="fill:white;stroke:white;stroke-width:0.35px;"/>
    <path d="M82.903,15.053C85.579,10.77 88.191,10.609 90.733,14.845C101.353,34.086 108.755,44.212 122.494,64.447C149.472,101.174 127.647,144.439 95.589,145.21L72.812,145.21C45.184,142.775 27.972,103.156 51.44,64.061L82.903,15.053ZM56.43,95.886C52.901,121.644 63.783,133.281 88.32,129.006C68.733,128.679 56.125,114.507 56.43,95.886Z" style="fill:white;stroke:white;stroke-width:0.35px;"/>
</svg>
