<?xml version="1.0" encoding="UTF-8" standalone="no"?>
<!DOCTYPE svg PUBLIC "-//W3C//DTD SVG 1.1//EN" "http://www.w3.org/Graphics/SVG/1.1/DTD/svg11.dtd">
<svg width="100%" height="100%" viewBox="0 0 438 282" version="1.1" xmlns="http://www.w3.org/2000/svg" xmlns:xlink="http://www.w3.org/1999/xlink" xml:space="preserve" xmlns:serif="http://www.serif.com/" style="fill-rule:evenodd;clip-rule:evenodd;stroke-linejoin:round;stroke-miterlimit:2;">
    <g id="ArtBoard1" transform="matrix(0.79244,0,0,0.936302,-134.139,-338.38)">
        <rect x="169.274" y="361.4" width="552.34" height="301.164" style="fill:none;"/>
        <g transform="matrix(0.943695,0,0,1.06803,-36.9897,-44.6473)">
            <path d="M773.508,423.427L773.508,427.056C773.508,436.966 762.749,445.012 749.497,445.012L271.008,445.012C257.757,445.012 246.998,436.966 246.998,427.056L246.998,423.427C246.998,413.517 257.757,405.471 271.008,405.471L749.497,405.471C762.749,405.471 773.508,413.517 773.508,423.427Z" style="fill:rgb(219,38,52);"/>
        </g>
        <g transform="matrix(0.943695,0,0,1.06803,-36.9897,157.931)">
            <path d="M773.508,423.427L773.508,427.056C773.508,436.966 762.749,445.012 749.497,445.012L271.008,445.012C257.757,445.012 246.998,436.966 246.998,427.056L246.998,423.427C246.998,413.517 257.757,405.471 271.008,405.471L749.497,405.471C762.749,405.471 773.508,413.517 773.508,423.427Z" style="fill:rgb(219,38,52);"/>
        </g>
        <g transform="matrix(0.943695,0,0,1.06803,-36.9897,56.9111)">
            <path d="M773.508,423.427L773.508,427.056C773.508,436.966 762.749,445.012 749.497,445.012L271.008,445.012C257.757,445.012 246.998,436.966 246.998,427.056L246.998,423.427C246.998,413.517 257.757,405.471 271.008,405.471L749.497,405.471C762.749,405.471 773.508,413.517 773.508,423.427Z" style="fill:rgb(219,38,52);"/>
        </g>
    </g>
</svg>
